<?xml version="1.0" standalone="no"?><!DOCTYPE svg PUBLIC "-//W3C//DTD SVG 1.1//EN" "http://www.w3.org/Graphics/SVG/1.1/DTD/svg11.dtd"><svg t="1662286645732" class="icon" viewBox="0 0 1024 1024" version="1.1" xmlns="http://www.w3.org/2000/svg" p-id="6373" width="16" height="16" xmlns:xlink="http://www.w3.org/1999/xlink"><defs><linearGradient id="run-color" x1="0" y1="0" x2="1" y2="1"><stop offset="0.5" stop-color="#6F2AFF"/><stop offset="1" stop-color="#551FEA"/></linearGradient></defs><path d="M512 303.2l31.4 311.7-31.4 40-31.4-40z" fill="#A6DB20" p-id="6375"/><path d="M573.9 782.9H450.1c-22.5 0-40.8-18.3-40.8-40.8 0-22.5 18.3-40.8 40.8-40.8h123.8c22.5 0 40.8 18.3 40.8 40.8 0 22.6-18.3 40.8-40.8 40.8z" fill="#69B209" p-id="6376"/><path d="M260.7 687.4L126.6 731c24.7 56.8 61.5 107 107.2 147.5l82.9-114c-22.7-22.3-41.7-48.3-56-77.1z" fill="#FAD60E" p-id="6374"/><path d="M232 563.7c0-16.2 1.4-32.1 4-47.6l-134.1-43.6c-6.5 29.4-9.9 59.9-9.9 91.2s3.4 61.8 9.9 91.2L236 611.3c-2.6-15.5-4-31.4-4-47.6z" fill="#F9AB10" p-id="6377"/><path d="M233.9 249c-45.7 40.5-82.6 90.7-107.2 147.5l134.1 43.6c14.2-28.8 33.2-54.8 56-77L233.9 249z" fill="#F9980D" p-id="6378"/><path d="M298.6 201.9l82.9 114c27.8-14.7 58.3-24.8 90.6-29.4v-141c-63 6-121.8 25.8-173.5 56.4z" fill="#F5461A" p-id="6383"/><path d="M552 145.6v141c32.3 4.6 62.8 14.7 90.6 29.4l82.9-114c-51.8-30.7-110.6-50.5-173.5-56.4z" fill="#DB3412" p-id="6379"/><path d="M790.1 249l-82.9 114c22.8 22.2 41.8 48.2 56 77l134.1-43.6c-24.6-56.7-61.5-107-107.2-147.4z" fill="#C61700" p-id="6382"/><path d="M 670 470 L 670 1024 L 1024 747 L 670 470" fill="url(#run-color)"/></svg>